<svg width="49" height="45" viewBox="0 0 49 45" fill="none" xmlns="http://www.w3.org/2000/svg">
<g clip-path="url(#clip0_10_2130)">
<path d="M20.0382 41.3025C20.1977 40.8114 20.7097 38.012 17.583 37.0048C17.008 40.4715 19.5598 41.2353 20.0382 41.3025Z" fill="#F7F3F0"/>
<path d="M15.9628 44.3663C16.4161 44.5384 19.014 45.0924 19.9458 41.718C16.7351 41.101 16.0258 43.8501 15.9628 44.3663Z" fill="#F7F3F0"/>
<path d="M16.2609 40.4001C16.5169 39.9636 17.6165 37.3615 14.7878 35.6072C13.4909 38.8389 15.8118 40.2155 16.2609 40.4001Z" fill="#F7F3F0"/>
<path d="M11.6442 42.3769C12.0513 42.6581 14.4561 43.8374 16.0846 40.7862C13.0879 39.3886 11.8162 41.89 11.6442 42.3769Z" fill="#F7F3F0"/>
<path d="M12.7732 38.4654C13.1173 38.1002 14.7247 35.8339 12.3325 33.4374C10.3977 36.2745 12.3744 38.1758 12.7732 38.4654Z" fill="#F7F3F0"/>
<path d="M7.867 39.2712C8.20276 39.6405 10.3054 41.3781 12.5215 38.7927C9.89414 36.7068 8.13141 38.8389 7.867 39.2712Z" fill="#F7F3F0"/>
<path d="M9.70933 35.6155C10.1164 35.3427 12.152 33.517 10.3137 30.6085C7.84587 32.9127 9.37777 35.2378 9.70933 35.6155Z" fill="#F7F3F0"/>
<path d="M4.75711 35.2252C5.00893 35.6659 6.70031 37.8609 9.39477 35.8758C7.26271 33.2107 5.10546 34.8643 4.75711 35.2252Z" fill="#F7F3F0"/>
<path d="M7.19527 31.9684C7.65274 31.8006 10.0114 30.5163 8.82369 27.2343C5.94037 28.8795 6.94764 31.5194 7.19527 31.9684Z" fill="#F7F3F0"/>
<path d="M2.44882 30.3861C2.60411 30.8772 3.79605 33.429 6.83466 32.1489C5.31116 29.0347 2.86432 30.1259 2.44882 30.3861Z" fill="#F7F3F0"/>
<path d="M5.3317 27.6204C5.81016 27.57 8.38291 26.9069 7.92963 23.4192C4.77351 24.3048 5.1932 27.1209 5.3317 27.6204Z" fill="#F7F3F0"/>
<path d="M1.05545 24.9007C1.10162 25.4169 1.71438 28.1953 4.94605 27.7043C4.12764 24.2963 1.51712 24.7496 1.05545 24.9007Z" fill="#F7F3F0"/>
<path d="M4.25742 22.8064C4.73588 22.882 7.37997 22.8862 7.69475 19.3817C4.43369 19.4405 4.22804 22.286 4.25742 22.8064Z" fill="#F7F3F0"/>
<path d="M0.69005 19.0795C0.622898 19.5957 0.614504 22.4497 3.86296 22.7896C3.8084 19.2684 1.1727 19.0459 0.69005 19.0795Z" fill="#F7F3F0"/>
<path d="M4.22815 18.5801C4.67723 18.7731 7.24578 19.4488 8.31181 16.1206C5.1263 15.3526 4.31209 18.068 4.22815 18.5801Z" fill="#F7F3F0"/>
<path d="M1.56731 14.0557C1.39104 14.5383 0.765689 17.3125 3.84627 18.4667C4.55556 15.0294 2.04157 14.148 1.56731 14.0557Z" fill="#F7F3F0"/>
<path d="M5.24796 14.5467C5.64247 14.8447 8.00117 16.1374 9.74292 13.1575C6.80503 11.6256 5.43682 14.0683 5.24796 14.5467Z" fill="#F7F3F0"/>
<path d="M3.61544 9.48523C3.33844 9.91332 2.1423 12.4609 4.90391 14.3411C6.32249 11.1682 4.06032 9.69088 3.61544 9.48523Z" fill="#F7F3F0"/>
<path d="M7.20822 10.8535C7.53139 11.2396 9.56273 13.0653 11.8795 10.5848C9.33609 8.38143 7.49362 10.4338 7.20822 10.8535Z" fill="#F7F3F0"/>
<path d="M6.66651 5.52747C6.30977 5.87581 4.61419 8.07083 6.91414 10.568C8.95387 7.81902 7.05264 5.83385 6.66651 5.52747Z" fill="#F7F3F0"/>
<path d="M9.99466 7.64274C10.2297 8.09601 11.8371 10.3666 14.6029 8.50312C12.5758 5.7457 10.3598 7.30278 9.99466 7.64274Z" fill="#F7F3F0"/>
<path d="M10.5614 2.32092C10.1417 2.57694 8.03898 4.30609 9.76394 7.29854C12.3199 5.10772 10.8761 2.71544 10.5614 2.32092Z" fill="#F7F3F0"/>
<path d="M13.5035 5.04895C13.6378 5.54839 14.7249 8.15052 17.8138 7.01313C16.4162 3.83183 13.9316 4.80972 13.5035 5.04895Z" fill="#F7F3F0"/>
<path d="M15.1697 0C14.7081 0.146894 12.2948 1.32205 13.3524 4.65445C16.2987 3.14354 15.3964 0.461667 15.1697 0Z" fill="#F7F3F0"/>
<path d="M20.3697 2.11528C19.9626 1.83409 17.5619 0.642146 15.9251 3.68915C18.9133 5.09933 20.1976 2.60213 20.3697 2.11528Z" fill="#F7F3F0"/>
<path d="M28.9691 41.3025C28.8096 40.8114 28.2976 38.012 31.4202 37.0048C31.9951 40.4715 29.4434 41.2353 28.9691 41.3025Z" fill="#F7F3F0"/>
<path d="M33.0448 44.3663C32.5915 44.5384 29.9936 45.0924 29.0619 41.718C32.2725 41.101 32.9818 43.8501 33.0448 44.3663Z" fill="#F7F3F0"/>
<path d="M32.7464 40.4001C32.4862 39.9636 31.3908 37.3615 34.2196 35.6072C35.5164 38.8389 33.1955 40.2155 32.7464 40.4001Z" fill="#F7F3F0"/>
<path d="M37.3635 42.3769C36.9564 42.6581 34.5515 43.8374 32.9231 40.7862C35.9197 39.3886 37.1914 41.89 37.3635 42.3769Z" fill="#F7F3F0"/>
<path d="M36.2344 38.4654C35.8902 38.1002 34.2828 35.8339 36.6751 33.4374C38.6099 36.2745 36.6331 38.1758 36.2344 38.4654Z" fill="#F7F3F0"/>
<path d="M41.1407 39.2712C40.8007 39.6405 38.7023 41.3781 36.4821 38.7927C39.1094 36.7068 40.8721 38.8389 41.1407 39.2712Z" fill="#F7F3F0"/>
<path d="M39.2981 35.6155C38.8868 35.3427 36.8555 33.517 38.6937 30.6085C41.1616 32.9127 39.6297 35.2378 39.2981 35.6155Z" fill="#F7F3F0"/>
<path d="M44.2505 35.2252C43.9987 35.6659 42.3073 37.8609 39.6128 35.8758C41.7449 33.2107 43.9021 34.8643 44.2505 35.2252Z" fill="#F7F3F0"/>
<path d="M41.8122 31.9684C41.3547 31.8006 38.996 30.5163 40.1795 27.2343C43.0629 28.8795 42.0556 31.5194 41.8122 31.9684Z" fill="#F7F3F0"/>
<path d="M46.5589 30.3861C46.4036 30.8772 45.2117 33.429 42.1731 32.1489C43.6966 29.0347 46.1434 30.1259 46.5589 30.3861Z" fill="#F7F3F0"/>
<path d="M43.6756 27.6204C43.1971 27.57 40.6244 26.9069 41.0776 23.4192C44.238 24.3048 43.8183 27.1209 43.6756 27.6204Z" fill="#F7F3F0"/>
<path d="M47.9522 24.9007C47.9061 25.4169 47.2933 28.1953 44.0616 27.7043C44.8801 24.2963 47.4906 24.7496 47.9522 24.9007Z" fill="#F7F3F0"/>
<path d="M44.7499 22.8064C44.2715 22.882 41.6274 22.8862 41.3126 19.3817C44.5737 19.4405 44.7793 22.286 44.7499 22.8064Z" fill="#F7F3F0"/>
<path d="M48.3174 19.0795C48.3845 19.5957 48.3929 22.4497 45.1444 22.7896C45.199 19.2684 47.8347 19.0459 48.3174 19.0795Z" fill="#F7F3F0"/>
<path d="M44.7795 18.5801C44.3304 18.7731 41.7618 19.4488 40.6958 16.1206C43.8813 15.3526 44.6955 18.068 44.7795 18.5801Z" fill="#F7F3F0"/>
<path d="M47.4402 14.0557C47.6165 14.5383 48.2419 17.3125 45.1613 18.4667C44.452 15.0294 46.966 14.148 47.4402 14.0557Z" fill="#F7F3F0"/>
<path d="M43.7598 14.5467C43.3653 14.8447 41.0066 16.1374 39.2607 13.1575C42.1985 11.6256 43.5668 14.0683 43.7598 14.5467Z" fill="#F7F3F0"/>
<path d="M45.3923 9.48523C45.6693 9.91332 46.8654 12.4609 44.1038 14.3411C42.6852 11.1682 44.9474 9.69088 45.3923 9.48523Z" fill="#F7F3F0"/>
<path d="M41.7995 10.8535C41.4764 11.2396 39.445 13.0653 37.1283 10.5848C39.6759 8.38143 41.5141 10.4338 41.7995 10.8535Z" fill="#F7F3F0"/>
<path d="M42.341 5.52747C42.6977 5.87581 44.3891 8.07083 42.0933 10.568C40.0536 7.81902 41.9548 5.83385 42.341 5.52747Z" fill="#F7F3F0"/>
<path d="M39.0128 7.64274C38.7778 8.09601 37.1703 10.3666 34.4045 8.50312C36.4317 5.7457 38.6477 7.30278 39.0128 7.64274Z" fill="#F7F3F0"/>
<path d="M38.4459 2.32092C38.8656 2.57694 40.9683 4.30609 39.2433 7.29854C36.6873 5.10772 38.1311 2.71544 38.4459 2.32092Z" fill="#F7F3F0"/>
<path d="M35.504 5.04895C35.3697 5.54839 34.2785 8.15052 31.1937 7.01313C32.5913 3.83183 35.0759 4.80972 35.504 5.04895Z" fill="#F7F3F0"/>
<path d="M33.8379 0C34.2996 0.146894 36.7129 1.32205 35.6552 4.65445C32.7089 3.14354 33.6113 0.461667 33.8379 0Z" fill="#F7F3F0"/>
<path d="M28.638 2.11528C29.0451 1.83409 31.4458 0.642146 33.0826 3.68915C30.0944 5.09933 28.8101 2.60213 28.638 2.11528Z" fill="#F7F3F0"/>
</g>
<defs>
<clipPath id="clip0_10_2130">
<rect width="47.6609" height="44.5089" fill="white" transform="translate(0.67334)"/>
</clipPath>
</defs>
</svg>
