<?xml version="1.0" encoding="UTF-8"?>
<svg id="Ebene_1" data-name="Ebene 1" xmlns="http://www.w3.org/2000/svg" xmlns:xlink="http://www.w3.org/1999/xlink" viewBox="0 0 100 100">
  <defs>
    <style>
      .cls-1, .cls-2 {
        fill: none;
      }

      .cls-3 {
        clip-path: url(#clippath);
      }

      .cls-4 {
        fill: #1b1b1d;
      }

      .cls-5 {
        clip-path: url(#clippath-1);
      }

      .cls-2 {
        stroke: #1b1b1d;
        stroke-miterlimit: 8;
        stroke-width: 1.38px;
      }
    </style>
    <clipPath id="clippath">
      <rect class="cls-1" x="1.01" y="1.11" width="97.71" height="97.7"/>
    </clipPath>
    <clipPath id="clippath-1">
      <rect class="cls-1" x="16.85" y="16.95" width="66.06" height="66.06"/>
    </clipPath>
  </defs>
  <g class="cls-3">
    <path class="cls-2" d="m1.94,50.21C1.94,23.61,23.51,2.04,50.11,2.04s48.17,21.57,48.17,48.17-21.57,48.17-48.17,48.17S1.94,76.81,1.94,50.21Z"/>
  </g>
  <g class="cls-5">
    <path class="cls-4" d="m50.49,26.84c4.09,0,7.43,3.29,7.49,7.38v.28c-.03.89-.21,1.76-.52,2.59-.3.77-.73,1.48-1.27,2.09-.83,1.01-1.53,2.12-2.1,3.3h-7.2c-.56-1.17-1.26-2.28-2.08-3.28-.55-.62-.98-1.33-1.28-2.1-.32-.83-.5-1.71-.53-2.6v-.26c.05-4.1,3.39-7.4,7.49-7.41m-6.7,13.27c.82,1.04,1.51,2.17,2.07,3.36.11.23.35.38.61.38h8.05c.26,0,.49-.15.61-.38.56-1.2,1.25-2.33,2.07-3.36.66-.74,1.18-1.59,1.54-2.52.38-.98.58-2.02.62-3.06v-.3c0-4.89-3.96-8.85-8.85-8.85s-8.85,3.96-8.85,8.85v.3c.03,1.05.24,2.08.62,3.06.36.92.88,1.78,1.54,2.52"/>
    <path class="cls-4" d="m54.58,45.9c0-.38-.31-.68-.68-.68h-6.81c-.38,0-.68.31-.68.68s.31.68.68.68h6.81c.38,0,.68-.31.68-.68"/>
    <path class="cls-4" d="m50.49,49.98c1.07,0,1.96-.82,2.04-1.89h-4.09c.09,1.06.98,1.89,2.04,1.89"/>
    <polygon class="cls-4" points="50.42 39.77 54.16 32.89 50.42 33.63 50.42 29.56 46.82 36.59 50.42 35.77 50.42 39.77"/>
    <path class="cls-4" d="m36.19,50.12c2.16,0,3.91,1.75,3.91,3.91,0,2.16-1.75,3.91-3.91,3.91-2.16,0-3.91-1.75-3.91-3.91h0c0-2.16,1.75-3.91,3.91-3.91m0,9.18c2.91,0,5.27-2.36,5.27-5.27,0-2.91-2.36-5.27-5.27-5.27-2.91,0-5.27,2.36-5.27,5.27h0c0,2.91,2.36,5.27,5.27,5.27h0Z"/>
    <path class="cls-4" d="m64.79,49.98c2.16,0,3.91,1.75,3.91,3.91s-1.75,3.91-3.91,3.91c-2.16,0-3.91-1.75-3.91-3.91h0c0-2.16,1.75-3.91,3.91-3.91m0,9.18c2.91,0,5.27-2.36,5.27-5.27,0-2.91-2.36-5.27-5.27-5.27-2.91,0-5.27,2.36-5.27,5.27h0c0,2.91,2.36,5.27,5.27,5.27"/>
    <path class="cls-4" d="m74.42,63.34c-1.55-1.19-3.32-2.06-5.22-2.55-1.43-.44-2.91-.66-4.41-.67-1.49.02-2.97.25-4.4.67-1.87.54-3.64,1.41-5.22,2.55-.1.08-.2.17-.29.27.14.04.27.07.41.11.41.12.81.25,1.2.39,1.32-.87,2.75-1.55,4.27-1.99,1.31-.38,2.67-.59,4.03-.61,1.37,0,2.72.21,4.03.61,1.72.44,3.33,1.22,4.74,2.3.47.36.75.92.77,1.51v4.36h1.36v-4.36c-.01-1.01-.48-1.95-1.27-2.58"/>
    <path class="cls-4" d="m44.4,64.15c.44-.16.88-.31,1.32-.44.09-.03.18-.04.27-.07-.06-.05-.11-.11-.17-.16-1.55-1.19-3.32-2.06-5.22-2.55-1.43-.44-2.92-.66-4.41-.67-1.49.02-2.97.25-4.4.66-1.87.54-3.64,1.41-5.22,2.55-.79.62-1.26,1.57-1.28,2.57v4.36h1.36v-4.36c.01-.58.28-1.13.74-1.49,1.44-1.04,3.05-1.82,4.76-2.32,1.31-.38,2.67-.59,4.03-.61,1.37,0,2.72.21,4.03.61,1.49.4,2.91,1.04,4.18,1.91"/>
    <path class="cls-4" d="m60.12,67.57c-1.55-1.19-3.32-2.06-5.22-2.55-1.43-.44-2.91-.66-4.41-.67-1.49.02-2.97.25-4.4.66-1.87.54-3.64,1.41-5.22,2.55-.79.62-1.26,1.57-1.28,2.57v4.36h1.36v-4.36c.01-.58.28-1.13.74-1.49,1.44-1.04,3.05-1.82,4.76-2.32,1.31-.38,2.67-.59,4.03-.61,1.37,0,2.72.21,4.03.61,1.72.44,3.33,1.22,4.74,2.3.47.36.75.92.77,1.51v4.36h1.36v-4.36c-.02-1-.48-1.95-1.27-2.57"/>
    <path class="cls-4" d="m50.49,54.21c2.16,0,3.91,1.75,3.91,3.91,0,2.16-1.75,3.91-3.91,3.91-2.16,0-3.91-1.75-3.91-3.91h0c0-2.16,1.75-3.91,3.91-3.91m0,9.18c2.91,0,5.27-2.36,5.27-5.27,0-2.91-2.36-5.27-5.27-5.27-2.91,0-5.27,2.36-5.27,5.27h0c0,2.91,2.36,5.27,5.27,5.27h0Z"/>
  </g>
</svg>