<?xml version="1.0" encoding="UTF-8"?>
<svg id="Ebene_1" data-name="Ebene 1" xmlns="http://www.w3.org/2000/svg" xmlns:xlink="http://www.w3.org/1999/xlink" viewBox="0 0 97.47 97.46">
  <defs>
    <style>
      .cls-1, .cls-2 {
        fill: none;
      }

      .cls-3 {
        clip-path: url(#clippath);
      }

      .cls-4 {
        fill: #1b1b1d;
      }

      .cls-5 {
        clip-path: url(#clippath-1);
      }

      .cls-2 {
        stroke: #1b1b1d;
        stroke-miterlimit: 8;
        stroke-width: 1.38px;
      }
    </style>
    <clipPath id="clippath">
      <rect class="cls-1" x="15.6" y="15.6" width="66.06" height="66.06"/>
    </clipPath>
    <clipPath id="clippath-1">
      <rect class="cls-1" width="97.47" height="97.46"/>
    </clipPath>
  </defs>
  <polygon class="cls-4" points="56.52 49.65 57.88 49.65 57.88 53.91 56.52 55.27 56.52 49.65"/>
  <g class="cls-3">
    <path class="cls-4" d="m60.6,51.18v-11.07c0-.38-.31-.68-.68-.68s-.68.31-.68.68v12.43l1.36-1.36Z"/>
    <path class="cls-4" d="m55.16,56.63v-16.51c0-.38-.31-.68-.68-.68s-.68.31-.68.68v17.88l1.36-1.36Z"/>
    <path class="cls-4" d="m45.84,52.89v-12.77c0-.38-.31-.68-.68-.68s-.68.31-.68.68v11.41l1.36,1.36Z"/>
    <path class="cls-4" d="m40.39,50.28v-10.17c0-.38-.31-.68-.68-.68s-.68.31-.68.68v11.53l1.36-1.36Z"/>
    <path class="cls-4" d="m20.8,49.8c.34.17.75.03.91-.3.17-.33.03-.74-.3-.91-.36-.21-.55-.62-.48-1.03l1.71-9.7c.04-.13.11-.24.2-.33.72-.54,1.54-.94,2.41-1.18.71-.19,1.44-.29,2.17-.3.71,0,1.41.11,2.1.3.88.24,1.7.64,2.43,1.18.1.07.16.18.19.29l2.12,11.28c.07.37.43.61.8.54.28-.05.49-.27.54-.54l2.11-11.24c.03-.13.1-.25.2-.33.73-.55,1.55-.95,2.43-1.19.68-.19,1.39-.29,2.09-.3.73.01,1.46.11,2.16.3.89.24,1.72.65,2.45,1.2.07.08.13.16.17.26l1.8,11.28c.05.33.33.57.66.57.33,0,.61-.23.68-.56l2.11-11.24c.02-.13.1-.25.2-.33.73-.55,1.55-.95,2.43-1.19.68-.19,1.38-.29,2.09-.3.73.01,1.46.11,2.16.3.89.24,1.72.65,2.45,1.2.07.08.13.17.17.26l1.68,10.32,1.18-1.19-1.53-9.41c-.11-.43-.36-.82-.71-1.09-.87-.65-1.85-1.13-2.9-1.41-.82-.22-1.66-.33-2.5-.34-.83,0-1.65.12-2.45.35-1.05.28-2.03.76-2.89,1.41-.37.28-.62.68-.71,1.13l-1.39,7.4s-.01.02-.01,0l-1.19-7.44c-.11-.43-.36-.82-.71-1.09-.87-.65-1.85-1.13-2.9-1.41-.82-.22-1.66-.33-2.5-.34-.83,0-1.65.12-2.45.35-1.04.28-2.03.76-2.89,1.41-.37.28-.62.68-.71,1.13l-1.45,7.69s0,.02-.01,0l-1.45-7.73c-.1-.44-.35-.82-.71-1.09-.86-.65-1.85-1.13-2.89-1.41-.8-.22-1.62-.34-2.45-.35-.85.01-1.69.13-2.51.35-1.03.28-2,.75-2.86,1.39-.38.29-.64.7-.75,1.16l-1.72,9.75c-.18,1,.31,2,1.2,2.48"/>
    <path class="cls-4" d="m42.44,27.86c-1.13,0-2.04.91-2.04,2.04s.91,2.04,2.04,2.04,2.04-.91,2.04-2.04-.91-2.04-2.04-2.04m0,5.45c-1.88,0-3.41-1.52-3.41-3.4s1.52-3.4,3.41-3.4,3.4,1.52,3.4,3.4c0,1.88-1.53,3.4-3.4,3.4"/>
    <path class="cls-4" d="m27.45,27.86c-1.13,0-2.04.91-2.04,2.04s.91,2.04,2.04,2.04,2.04-.91,2.04-2.04-.91-2.04-2.04-2.04m0,5.45c-1.88,0-3.41-1.52-3.41-3.4s1.52-3.4,3.41-3.4,3.41,1.52,3.41,3.4c0,1.88-1.53,3.4-3.41,3.4"/>
    <path class="cls-4" d="m57.2,27.86c-1.13,0-2.04.91-2.04,2.04s.91,2.04,2.04,2.04,2.04-.91,2.04-2.04-.91-2.04-2.04-2.04m0,5.45c-1.88,0-3.41-1.52-3.41-3.4s1.52-3.4,3.41-3.4,3.4,1.52,3.4,3.4c0,1.88-1.53,3.4-3.4,3.4"/>
    <path class="cls-4" d="m25.41,54.43h1.36v8.86h-1.36v-8.86Zm-1.36,0v10.22h1.98l2.1-2.1v-8.11h1.36v6.75l1.36-1.36v-5.39h2.6l-2.6-9.36v-4.95c0-.38-.31-.68-.68-.68s-.68.31-.68.68v5.05l2.17,7.9h-8.42l2.17-7.81v-5.14c0-.38-.31-.68-.68-.68s-.68.31-.68.68v4.95l-2.6,9.36h2.6Z"/>
    <path class="cls-4" d="m68.03,38.07c-.38,0-.68.31-.68.68s.31.68.68.68h7.19s.01,0,0,.01l-22.86,22.86-10.56-10.56-19.89,19.89c-.27.26-.28.69-.02.96.26.27.69.28.96.02,0,0,.01-.01.02-.02l18.93-18.93,10.56,10.56,23.82-23.82s.01,0,.01,0v7.19c0,.38.31.68.68.68s.68-.31.68-.68v-9.53h-9.53Z"/>
  </g>
  <g class="cls-5">
    <path class="cls-2" d="m.69,48.85C.69,22.25,22.25.69,48.85.69s48.17,21.57,48.17,48.17-21.57,48.17-48.17,48.17S.69,75.46.69,48.85Z"/>
  </g>
</svg>