<?xml version="1.0" encoding="utf-8"?>
<!-- Generator: $$$/GeneralStr/196=Adobe Illustrator 27.6.0, SVG Export Plug-In . SVG Version: 6.00 Build 0)  -->
<svg version="1.1" id="Ebene_1" xmlns="http://www.w3.org/2000/svg" xmlns:xlink="http://www.w3.org/1999/xlink" x="0px" y="0px"
	 viewBox="0 0 46 46" style="enable-background:new 0 0 46 46;" xml:space="preserve">
<style type="text/css">
	.st0{fill:#266687;}
</style>
<g>
	<g>
		<path class="st0" d="M16.1,35.6C16.1,35.6,16.2,35.6,16.1,35.6c0.1,0,0.1-0.1,0.2-0.1c0.8-2.7,1.6-5.4,2.4-8
			c0.1-0.2,0-0.3-0.2-0.4c-0.8-0.4-1.5-0.7-2.2-1.1c-0.3-0.1-0.5-0.3-0.9-0.4C15.6,28.9,15.9,32.2,16.1,35.6 M25,31.5
			c-1.7-1.2-3.3-2.4-5-3.5c-1,3.2-1.9,6.4-2.8,9.5c0,0,0.1,0,0.1,0C19.8,35.5,22.3,33.5,25,31.5 M35.4,14.7
			C35.4,14.7,35.4,14.6,35.4,14.7C29,17.8,22.5,21,16,24.3c1.1,0.5,2.1,1,3.1,1.5c0.3,0.2,0.5,0.1,0.8-0.1
			C25,22.1,30,18.5,35.1,14.9C35.2,14.8,35.4,14.7,35.4,14.7z M3.2,18c0.1,0.1,0.2,0.1,0.2,0.1c3.6,1.7,7.2,3.5,10.7,5.2
			c0.2,0.1,0.4,0,0.6,0c8.6-4.3,17.3-8.6,25.9-12.9c0.1-0.1,0.2-0.1,0.4-0.2c0,0,0-0.1,0-0.1C28.5,12.7,15.9,15.3,3.2,18 M43.2,10.9
			c-7.5,5.3-14.9,10.5-22.3,15.8c4.6,3.3,9.1,6.5,13.7,9.7C37.4,28,40.3,19.5,43.2,10.9 M45.4,8.8c-0.2,0.5-0.4,0.9-0.5,1.3
			c-3.1,9.1-6.2,18.2-9.3,27.4c-0.3,0.9-0.7,1-1.4,0.5c-2.5-1.8-5.1-3.6-7.6-5.4c-0.1-0.1-0.3-0.2-0.4-0.3c-1.1,0.9-2.2,1.8-3.4,2.6
			c-2.2,1.7-4.3,3.3-6.4,5c-0.3,0.2-0.6,0.4-0.9,0.2C15.1,40,15,39.7,15,39.3c-0.3-3.8-0.6-7.7-0.9-11.5c-0.1-0.9-0.2-1.8-0.2-2.6
			c0-0.3-0.1-0.5-0.4-0.6c-4.2-2-8.3-4-12.5-6c-0.1,0-0.2-0.1-0.2-0.1c-0.3-0.2-0.5-0.4-0.5-0.7c0-0.4,0.3-0.6,0.6-0.6
			c1.4-0.3,2.8-0.6,4.1-0.9c6.9-1.5,13.9-2.9,20.8-4.4c6.2-1.3,12.3-2.6,18.5-3.9c0.5-0.1,0.8,0,1.1,0.4L45.4,8.8L45.4,8.8z"/>
	</g>
</g>
</svg>
