<svg width="331" height="46" viewBox="0 0 331 46" fill="none" xmlns="http://www.w3.org/2000/svg">
<path d="M81.0145 34.2444C82.9961 34.2444 84.4744 33.7097 85.5911 33.285C86.346 33.0019 86.9593 32.7503 87.5098 32.7503C87.8243 32.7503 88.1861 33.0177 88.5478 33.2536C88.9724 33.5838 89.3813 33.7883 89.7902 33.7883C90.6395 33.7883 90.9069 33.285 90.9069 32.4043C90.9069 31.2562 90.671 29.2117 90.671 27.2615C90.671 23.6914 91.646 23.7858 91.646 22.4175C91.646 21.8356 91.3315 21.3953 90.5609 21.3953C89.2398 21.3953 88.0288 21.4739 86.8335 21.4739C85.9685 21.4739 84.8362 21.3953 83.8454 21.3953C82.8231 21.3953 82.3513 21.8199 82.3513 22.4804C82.3513 23.3297 82.9804 23.4083 83.5937 23.9273C84.2228 24.4463 84.9305 24.7923 84.9305 27.2615C84.9305 28.0793 84.8833 28.7713 84.6003 29.2274C84.3014 29.6835 83.6409 30.0609 82.8545 30.0609C80.3225 30.0609 77.177 26.6481 77.177 21.2694C77.177 17.8252 78.8913 14.5696 82.0524 14.5696C83.6881 14.5696 85.4181 15.5919 86.8492 17.5735C87.6199 18.6744 88.0917 19.7439 89.0353 19.7439C89.5229 19.7439 89.979 19.3979 89.979 18.643C89.979 18.1554 89.7431 17.6207 89.3184 15.3088C88.9567 13.4373 88.9252 12.0847 87.5255 12.0847C86.8178 12.0847 86.3302 12.4307 85.5911 12.4307C84.616 12.4307 83.6094 11.7859 81.2818 11.7859C74.1417 11.7859 70.8232 17.432 70.8232 23.0309C70.8232 28.8814 74.8337 34.2444 81.0145 34.2444ZM93.3067 25.8146C93.3067 30.5799 96.5151 34.0242 101.501 34.0242C105.999 34.0242 109.71 31.3978 109.71 26.0977C109.71 20.4673 105.747 17.3534 101.312 17.3534C96.6724 17.3534 93.3067 20.7976 93.3067 25.8146ZM100.824 20.1843C101.674 20.1843 102.539 20.9549 103.215 22.4804C103.844 23.9116 104.253 25.9719 104.253 27.5131C104.253 29.8565 103.246 30.6429 102.193 30.6429C101.249 30.6429 100.431 29.9509 99.8807 28.7399C99.2516 27.293 99.0157 25.3271 99.0157 23.7858C99.0157 20.9706 99.9279 20.1843 100.824 20.1843ZM111.153 25.8146C111.153 30.5799 114.362 34.0242 119.347 34.0242C123.845 34.0242 127.557 31.3978 127.557 26.0977C127.557 20.4673 123.594 17.3534 119.159 17.3534C114.519 17.3534 111.153 20.7976 111.153 25.8146ZM118.671 20.1843C119.52 20.1843 120.385 20.9549 121.062 22.4804C121.691 23.9116 122.1 25.9719 122.1 27.5131C122.1 29.8565 121.093 30.6429 120.039 30.6429C119.096 30.6429 118.278 29.9509 117.727 28.7399C117.098 27.293 116.862 25.3271 116.862 23.7858C116.862 20.9706 117.775 20.1843 118.671 20.1843ZM143.155 34.0085C145.215 34.0085 146.882 32.593 146.882 30.6429C146.882 30.2811 146.74 29.9666 146.536 29.9666C146.3 29.9666 146.127 30.0609 145.86 30.0609C145.136 30.0609 144.885 29.3689 144.885 28.8028V18.2341C144.885 13.6889 145.042 13.7046 145.042 11.6916C145.042 10.9209 144.57 10.5907 143.91 10.5907C143.139 10.5907 142.022 11.2984 140.434 11.9275C139.018 12.5094 137.87 12.6824 137.87 13.5159C137.87 13.9877 138.201 14.2079 138.531 14.4281C138.924 14.6483 139.553 15.2145 139.553 16.1266V17.4163C139.553 18.5329 139.459 18.7688 139.301 18.7688C139.05 18.7688 138.185 17.3534 135.543 17.3534C131.941 17.3534 129.094 20.5145 129.094 26.2392C129.094 31.5236 131.862 34.0242 134.992 34.0242C136.942 34.0242 138.122 33.1277 138.83 32.4987C139.176 32.1684 139.38 31.9168 139.537 31.9168C139.758 31.9168 139.852 32.1998 140.072 32.4829C140.827 33.5681 141.629 34.0085 143.155 34.0085ZM137.477 30.171C135.967 30.171 134.882 28.6298 134.882 25.0911C134.882 21.5211 135.967 20.3101 137.273 20.3101C138.436 20.3101 139.616 21.5211 139.616 25.4529C139.616 29.1959 138.704 30.171 137.477 30.171ZM155.756 23.0309C155.756 28.8814 159.405 34.2444 166.199 34.2444C170.099 34.2444 172.946 32.4672 174.362 30.2182C175.038 29.133 175.384 27.9063 175.384 26.7268C175.384 26.1449 175.179 25.4529 174.66 25.4529C174.33 25.4529 174.063 25.8303 173.732 26.3179C172.978 27.576 171.483 29.2117 168.857 29.2117C164.815 29.2117 162.362 25.3585 162.362 20.7504C162.362 17.4635 163.824 14.5696 166.986 14.5696C168.621 14.5696 170.351 15.5919 171.782 17.5735C172.553 18.6744 173.025 19.7439 173.968 19.7439C174.456 19.7439 174.912 19.3979 174.912 18.643C174.912 18.1554 174.676 17.6207 174.251 15.3088C173.89 13.4373 173.858 12.0847 172.459 12.0847C171.751 12.0847 171.263 12.4307 170.524 12.4307C169.549 12.4307 168.543 11.7859 166.215 11.7859C159.075 11.7859 155.756 17.432 155.756 23.0309ZM181.064 25.0911C178.343 26.0977 176.66 27.6232 176.66 30.1081C176.66 32.7503 178.705 34.0871 181.347 34.0871C182.888 34.0871 184.508 33.3951 185.452 32.5144C185.578 32.3886 185.704 32.247 185.845 32.247C185.971 32.247 186.065 32.4043 186.144 32.5301C186.679 33.458 187.559 34.0085 189.164 34.0085C191.224 34.0085 192.891 32.593 192.891 30.6429C192.891 30.2811 192.749 29.9666 192.545 29.9666C192.309 29.9666 192.136 30.0609 191.869 30.0609C191.145 30.0609 190.972 29.3689 190.972 28.8028C190.972 27.057 191.129 25.563 191.129 23.5971C191.129 18.9104 187.638 17.3219 183.848 17.3219C179.649 17.3219 177.321 19.3822 177.321 21.3481C177.321 23.0152 178.406 23.8959 179.696 23.8959C180.891 23.8959 181.3 23.1724 181.583 22.2445C182.055 20.6561 182.763 19.7282 183.832 19.7282C185.074 19.7282 185.719 20.7662 185.719 22.1973C185.719 23.2982 185.515 23.6757 185.295 23.8487C184.807 24.2261 182.951 24.4149 181.064 25.0911ZM185.766 27.8277C185.766 29.2746 185.074 30.5799 183.518 30.5799C182.558 30.5799 182.039 29.9194 182.039 29.1173C182.039 28.1265 182.81 27.3087 183.832 26.884C184.398 26.6324 184.964 26.5066 185.499 26.5066C185.656 26.5066 185.766 26.711 185.766 27.8277ZM202.295 21.5525C202.719 21.5525 203.097 22.103 203.317 23.0938C203.584 24.2891 203.695 25.0125 204.874 25.0125C206.62 25.0125 208.082 22.9994 208.082 21.0807C208.082 18.3127 206.557 17.3534 204.89 17.3534C202.515 17.3534 201.131 19.5866 200.754 19.5866C200.502 19.5866 200.392 19.1148 200.282 18.6115C200.014 17.6679 199.637 17.4005 198.961 17.4005C198.363 17.4005 198.001 17.7465 196.224 18.5644C194.84 19.1934 193.692 19.335 193.692 20.2472C193.692 20.719 193.975 20.9392 194.321 21.1593C194.714 21.3795 195.343 21.8199 195.343 22.8422V28.5669C195.343 29.3847 195.265 30.3126 194.478 31.2877C194.195 31.6179 193.566 32.0426 193.566 32.8132C193.566 33.3479 193.849 33.804 194.651 33.804C196.004 33.804 196.932 33.7097 198.096 33.7097C199.889 33.7097 200.974 33.804 201.949 33.804C202.94 33.804 203.27 33.3794 203.27 32.7503C203.27 31.9325 202.342 31.7595 201.792 31.3034C200.879 30.5328 200.691 29.9509 200.691 28.5669V24.3834C200.691 22.9365 201.273 21.5525 202.295 21.5525ZM221.939 25.3113C222.819 24.8552 223.433 24.179 223.433 23.0152C223.433 20.8448 221.766 17.3534 217.142 17.3534C212.046 17.3534 208.696 21.3795 208.696 26.0662C208.696 30.7529 211.669 34.0714 216.67 34.0714C221.136 34.0714 223.716 30.9417 223.716 28.7241C223.716 28.0479 223.511 27.7333 223.181 27.7333C222.992 27.7333 222.741 27.8591 222.52 28.0321C221.718 28.7713 220.507 29.7307 218.431 29.7307C215.884 29.7307 214.846 28.0479 214.846 27.0413C214.846 26.8211 214.971 26.7582 215.27 26.7425C216.859 26.6167 220.177 26.2235 221.939 25.3113ZM218.447 22.1344C218.447 22.4962 218.353 22.7635 218.148 23.0152C217.441 23.8802 215.601 24.3362 214.798 24.3362C214.327 24.3362 214.106 23.9431 214.106 23.2668C214.106 21.6783 215.066 20.1056 216.591 20.1056C217.692 20.1056 218.447 20.9863 218.447 22.1344ZM234.367 28.96C233.266 31.8067 231.976 31.7123 231.976 32.7975C231.976 33.4266 232.385 33.804 233.125 33.804C233.911 33.804 234.43 33.7097 235.232 33.7097C236.05 33.7097 237.104 33.804 237.874 33.804C238.991 33.804 239.337 33.3479 239.337 32.7818C239.337 31.8067 237.654 31.5078 237.654 30.0295C237.654 29.4633 238.047 28.7084 238.283 28.3939C238.472 28.1894 238.786 28.0321 239.195 28.0321H243.945C244.228 28.0321 244.495 28.1737 244.605 28.3624C244.826 28.7556 245.077 29.4319 245.077 29.6835C245.077 31.2877 243.127 31.7123 243.127 32.6874C243.127 33.3794 243.615 33.804 244.637 33.804C245.675 33.804 246.681 33.7097 248.317 33.7097C249.968 33.7097 250.849 33.804 251.777 33.804C253.177 33.804 253.869 33.5367 253.869 32.593C253.869 32.0426 253.303 31.5708 252.972 31.2405C252.139 30.4227 251.777 29.6049 251.557 29.0701L245.439 13.3429C245.093 12.4622 244.763 11.8017 243.819 11.8017C242.687 11.8017 239.809 13.0441 239.541 14.3652C239.368 15.2774 239.085 16.567 238.629 17.7937L234.367 28.96ZM239.761 24.8081C239.447 24.8081 239.368 24.6822 239.368 24.5092C239.368 24.0846 240.438 21.0807 241.067 19.8854C241.161 19.7124 241.271 19.5237 241.397 19.5237C241.491 19.5237 241.649 19.7124 241.743 19.8854C242.419 21.1593 243.379 24.0217 243.379 24.5092C243.379 24.6822 243.284 24.8081 242.938 24.8081H239.761ZM267.129 26.9941C267.459 28.3781 268.544 31.6022 268.733 32.1527C269.126 33.2064 269.551 33.9613 270.605 33.9613C271.627 33.9613 272.948 33.4423 273.53 32.7503C274.395 31.728 274.647 30.4699 275.181 28.8499C275.653 27.466 276.518 24.5721 277.32 22.276C278.264 19.508 279.302 19.7596 279.302 18.5172C279.302 17.9982 279.082 17.5735 278.28 17.5735C277.776 17.5735 277.257 17.6679 276.487 17.6679C275.763 17.6679 274.647 17.5735 273.876 17.5735C273.31 17.5735 272.854 17.951 272.854 18.5958C272.854 19.508 274.049 19.9326 274.049 21.3953C274.049 21.6626 274.033 22.1344 273.734 23.1882C273.341 25.1383 272.854 26.9155 272.461 26.9155C272.24 26.9155 271.847 25.9404 271.312 24.2261C270.715 22.3389 270.023 19.2721 269.834 18.6902C269.63 18.0611 269.189 17.605 268.073 17.605C266.814 17.605 265.415 18.1712 265.1 19.1305C264.833 19.9798 264.691 21.5997 264.251 23.4555C263.716 25.7045 263.433 26.9784 263.087 26.9784C262.835 26.9784 262.489 25.9876 261.892 24.2733C261.2 22.3546 261.043 21.3323 261.043 20.7662C261.043 19.8068 261.923 19.4294 261.923 18.7216C261.923 17.8409 261.373 17.5735 260.602 17.5735C259.564 17.5735 258.416 17.6679 257.441 17.6679C256.419 17.6679 255.711 17.5735 254.736 17.5735C253.965 17.5735 253.556 17.9982 253.556 18.6273C253.556 19.335 253.981 19.8068 254.484 20.3258C255.334 21.1593 256.372 23.8802 257.016 25.5944C257.96 28.095 259.029 31.3191 259.265 31.9639C259.832 33.458 260.02 33.9613 261.168 33.9613C262.128 33.9613 263.543 33.4266 264.141 32.7503C265.069 31.6966 265.871 28.8971 266.516 26.947C266.641 26.6324 266.72 26.5223 266.83 26.5223C266.972 26.5223 267.082 26.8054 267.129 26.9941ZM283.875 25.0911C281.154 26.0977 279.471 27.6232 279.471 30.1081C279.471 32.7503 281.515 34.0871 284.158 34.0871C285.699 34.0871 287.319 33.3951 288.262 32.5144C288.388 32.3886 288.514 32.247 288.656 32.247C288.781 32.247 288.876 32.4043 288.954 32.5301C289.489 33.458 290.37 34.0085 291.974 34.0085C294.034 34.0085 295.701 32.593 295.701 30.6429C295.701 30.2811 295.56 29.9666 295.355 29.9666C295.119 29.9666 294.946 30.0609 294.679 30.0609C293.956 30.0609 293.783 29.3689 293.783 28.8028C293.783 27.057 293.94 25.563 293.94 23.5971C293.94 18.9104 290.449 17.3219 286.658 17.3219C282.459 17.3219 280.131 19.3822 280.131 21.3481C280.131 23.0152 281.217 23.8959 282.506 23.8959C283.702 23.8959 284.11 23.1724 284.394 22.2445C284.865 20.6561 285.573 19.7282 286.643 19.7282C287.885 19.7282 288.53 20.7662 288.53 22.1973C288.53 23.2982 288.325 23.6757 288.105 23.8487C287.618 24.2261 285.762 24.4149 283.875 25.0911ZM288.577 27.8277C288.577 29.2746 287.885 30.5799 286.328 30.5799C285.369 30.5799 284.85 29.9194 284.85 29.1173C284.85 28.1265 285.62 27.3087 286.643 26.884C287.209 26.6324 287.775 26.5066 288.31 26.5066C288.467 26.5066 288.577 26.711 288.577 27.8277ZM305.105 21.5525C305.53 21.5525 305.907 22.103 306.128 23.0938C306.395 24.2891 306.505 25.0125 307.685 25.0125C309.43 25.0125 310.893 22.9994 310.893 21.0807C310.893 18.3127 309.367 17.3534 307.7 17.3534C305.325 17.3534 303.941 19.5866 303.564 19.5866C303.312 19.5866 303.202 19.1148 303.092 18.6115C302.825 17.6679 302.447 17.4005 301.771 17.4005C301.173 17.4005 300.812 17.7465 299.035 18.5644C297.651 19.1934 296.502 19.335 296.502 20.2472C296.502 20.719 296.786 20.9392 297.132 21.1593C297.525 21.3795 298.154 21.8199 298.154 22.8422V28.5669C298.154 29.3847 298.075 30.3126 297.289 31.2877C297.006 31.6179 296.377 32.0426 296.377 32.8132C296.377 33.3479 296.66 33.804 297.462 33.804C298.814 33.804 299.742 33.7097 300.906 33.7097C302.699 33.7097 303.784 33.804 304.759 33.804C305.75 33.804 306.08 33.3794 306.08 32.7503C306.08 31.9325 305.152 31.7595 304.602 31.3034C303.69 30.5328 303.501 29.9509 303.501 28.5669V24.3834C303.501 22.9365 304.083 21.5525 305.105 21.5525ZM325.645 34.0085C327.706 34.0085 329.373 32.593 329.373 30.6429C329.373 30.2811 329.231 29.9666 329.027 29.9666C328.791 29.9666 328.618 30.0609 328.351 30.0609C327.627 30.0609 327.375 29.3689 327.375 28.8028V18.2341C327.375 13.6889 327.533 13.7046 327.533 11.6916C327.533 10.9209 327.061 10.5907 326.4 10.5907C325.63 10.5907 324.513 11.2984 322.925 11.9275C321.509 12.5094 320.361 12.6824 320.361 13.5159C320.361 13.9877 320.691 14.2079 321.022 14.4281C321.415 14.6483 322.044 15.2145 322.044 16.1266V17.4163C322.044 18.5329 321.95 18.7688 321.792 18.7688C321.541 18.7688 320.676 17.3534 318.034 17.3534C314.432 17.3534 311.585 20.5145 311.585 26.2392C311.585 31.5236 314.353 34.0242 317.483 34.0242C319.433 34.0242 320.613 33.1277 321.321 32.4987C321.667 32.1684 321.871 31.9168 322.028 31.9168C322.248 31.9168 322.343 32.1998 322.563 32.4829C323.318 33.5681 324.12 34.0085 325.645 34.0085ZM319.968 30.171C318.458 30.171 317.373 28.6298 317.373 25.0911C317.373 21.5211 318.458 20.3101 319.764 20.3101C320.927 20.3101 322.107 21.5211 322.107 25.4529C322.107 29.1959 321.195 30.171 319.968 30.171Z" fill="#F7F2F0"/>
<g clip-path="url(#clip0_4_441)">
<path d="M20.1139 42.2891C20.2754 41.7918 20.7939 38.957 17.6276 37.937C17.0453 41.4475 19.6294 42.221 20.1139 42.2891Z" fill="#F7F3F0"/>
<path d="M15.9869 45.3916C16.4459 45.5659 19.0768 46.1269 20.0203 42.7098C16.769 42.085 16.0507 44.8688 15.9869 45.3916Z" fill="#F7F3F0"/>
<path d="M16.2888 41.3753C16.548 40.9333 17.6615 38.2982 14.797 36.5217C13.4837 39.7942 15.834 41.1883 16.2888 41.3753Z" fill="#F7F3F0"/>
<path d="M11.6136 43.3771C12.0259 43.6618 14.4612 44.8561 16.1102 41.7663C13.0757 40.351 11.7879 42.8841 11.6136 43.3771Z" fill="#F7F3F0"/>
<path d="M12.7569 39.416C13.1054 39.0462 14.7332 36.7512 12.3106 34.3244C10.3513 37.1974 12.3531 39.1227 12.7569 39.416Z" fill="#F7F3F0"/>
<path d="M7.78857 40.232C8.12858 40.606 10.2579 42.3655 12.5019 39.7475C9.84137 37.6352 8.05633 39.7942 7.78857 40.232Z" fill="#F7F3F0"/>
<path d="M9.65437 36.5302C10.0666 36.2539 12.1279 34.4051 10.2664 31.4598C7.76733 33.7931 9.31861 36.1477 9.65437 36.5302Z" fill="#F7F3F0"/>
<path d="M4.63916 36.1349C4.89417 36.5812 6.60695 38.804 9.33552 36.7937C7.17647 34.0949 4.99192 35.7694 4.63916 36.1349Z" fill="#F7F3F0"/>
<path d="M7.10848 32.8368C7.57174 32.6668 9.9603 31.3663 8.75752 28.0427C5.83771 29.7088 6.85773 32.3821 7.10848 32.8368Z" fill="#F7F3F0"/>
<path d="M2.30176 31.2346C2.45901 31.7318 3.66604 34.3159 6.74311 33.0196C5.20032 29.866 2.72252 30.9711 2.30176 31.2346Z" fill="#F7F3F0"/>
<path d="M5.22152 28.4338C5.70603 28.3828 8.31134 27.7112 7.85233 24.1794C4.65626 25.0762 5.08127 27.928 5.22152 28.4338Z" fill="#F7F3F0"/>
<path d="M0.890625 25.6797C0.937376 26.2025 1.55789 29.016 4.83046 28.5188C4.0017 25.0677 1.35814 25.5267 0.890625 25.6797Z" fill="#F7F3F0"/>
<path d="M4.13355 23.5589C4.61806 23.6354 7.29562 23.6396 7.61438 20.0908C4.31205 20.1503 4.1038 23.0319 4.13355 23.5589Z" fill="#F7F3F0"/>
<path d="M0.520913 19.7848C0.452911 20.3075 0.444411 23.1976 3.73399 23.5419C3.67873 19.976 1.00967 19.7508 0.520913 19.7848Z" fill="#F7F3F0"/>
<path d="M4.10364 19.279C4.5584 19.4745 7.15946 20.1588 8.23898 16.7885C5.01316 16.0107 4.18864 18.7605 4.10364 19.279Z" fill="#F7F3F0"/>
<path d="M1.40915 14.6974C1.23065 15.1862 0.597384 17.9955 3.71695 19.1643C4.43522 15.6835 1.88941 14.791 1.40915 14.6974Z" fill="#F7F3F0"/>
<path d="M5.1366 15.1947C5.53611 15.4965 7.92466 16.8055 9.68845 13.7879C6.71338 12.2366 5.32785 14.7102 5.1366 15.1947Z" fill="#F7F3F0"/>
<path d="M3.48323 10.0691C3.20272 10.5026 1.99144 13.0824 4.788 14.9864C6.22454 11.7733 3.93374 10.2773 3.48323 10.0691Z" fill="#F7F3F0"/>
<path d="M7.12134 11.4546C7.4486 11.8456 9.50564 13.6944 11.8517 11.1826C9.27614 8.95129 7.41034 11.0296 7.12134 11.4546Z" fill="#F7F3F0"/>
<path d="M6.57308 6.06125C6.21182 6.41401 4.49479 8.63681 6.82384 11.1656C8.88938 8.3818 6.96409 6.37151 6.57308 6.06125Z" fill="#F7F3F0"/>
<path d="M9.94336 8.20329C10.1814 8.6623 11.8092 10.9616 14.61 9.07456C12.5572 6.28224 10.3131 7.85903 9.94336 8.20329Z" fill="#F7F3F0"/>
<path d="M10.5172 2.81415C10.0922 3.0734 7.96291 4.82444 9.7097 7.85476C12.298 5.63621 10.836 3.21366 10.5172 2.81415Z" fill="#F7F3F0"/>
<path d="M13.4965 5.57671C13.6325 6.08247 14.7332 8.71753 17.8613 7.56575C16.446 4.34418 13.93 5.33445 13.4965 5.57671Z" fill="#F7F3F0"/>
<path d="M15.1837 0.463867C14.7162 0.612621 12.2724 1.80265 13.3434 5.17722C16.327 3.64719 15.4132 0.931378 15.1837 0.463867Z" fill="#F7F3F0"/>
<path d="M20.4496 2.60592C20.0373 2.32116 17.6063 1.11413 15.9487 4.1997C18.9748 5.62773 20.2753 3.09893 20.4496 2.60592Z" fill="#F7F3F0"/>
<path d="M29.158 42.2891C28.9965 41.7918 28.478 38.957 31.6401 37.937C32.2223 41.4475 29.6383 42.221 29.158 42.2891Z" fill="#F7F3F0"/>
<path d="M33.2849 45.3916C32.8259 45.5659 30.1951 46.1269 29.2516 42.7098C32.5029 42.085 33.2212 44.8688 33.2849 45.3916Z" fill="#F7F3F0"/>
<path d="M32.9831 41.3753C32.7196 40.9333 31.6103 38.2982 34.4748 36.5217C35.7881 39.7942 33.4378 41.1883 32.9831 41.3753Z" fill="#F7F3F0"/>
<path d="M37.6582 43.3771C37.246 43.6618 34.8107 44.8561 33.1616 41.7663C36.1962 40.351 37.484 42.8841 37.6582 43.3771Z" fill="#F7F3F0"/>
<path d="M36.515 39.416C36.1665 39.0462 34.5387 36.7512 36.9612 34.3244C38.9205 37.1974 36.9187 39.1227 36.515 39.416Z" fill="#F7F3F0"/>
<path d="M41.4832 40.232C41.139 40.606 39.0139 42.3655 36.7656 39.7475C39.4262 37.6352 41.2112 39.7942 41.4832 40.232Z" fill="#F7F3F0"/>
<path d="M39.6174 36.5302C39.2009 36.2539 37.1439 34.4051 39.0054 31.4598C41.5045 33.7931 39.9532 36.1477 39.6174 36.5302Z" fill="#F7F3F0"/>
<path d="M44.6326 36.1349C44.3776 36.5812 42.6648 38.804 39.9363 36.7937C42.0953 34.0949 44.2799 35.7694 44.6326 36.1349Z" fill="#F7F3F0"/>
<path d="M42.1634 32.8368C41.7001 32.6668 39.3116 31.3663 40.5101 28.0427C43.4299 29.7088 42.4099 32.3821 42.1634 32.8368Z" fill="#F7F3F0"/>
<path d="M46.9703 31.2346C46.813 31.7318 45.606 34.3159 42.5289 33.0196C44.0717 29.866 46.5495 30.9711 46.9703 31.2346Z" fill="#F7F3F0"/>
<path d="M44.0504 28.4338C43.5659 28.3828 40.9606 27.7112 41.4196 24.1794C44.6199 25.0762 44.1949 27.928 44.0504 28.4338Z" fill="#F7F3F0"/>
<path d="M48.3811 25.6797C48.3344 26.2025 47.7139 29.016 44.4413 28.5188C45.2701 25.0677 47.9136 25.5267 48.3811 25.6797Z" fill="#F7F3F0"/>
<path d="M45.1384 23.5589C44.6539 23.6354 41.9763 23.6396 41.6576 20.0908C44.9599 20.1503 45.1682 23.0319 45.1384 23.5589Z" fill="#F7F3F0"/>
<path d="M48.7509 19.7848C48.8189 20.3075 48.8274 23.1976 45.5378 23.5419C45.5931 19.976 48.2622 19.7508 48.7509 19.7848Z" fill="#F7F3F0"/>
<path d="M45.1682 19.279C44.7134 19.4745 42.1124 20.1588 41.0328 16.7885C44.2587 16.0107 45.0832 18.7605 45.1682 19.279Z" fill="#F7F3F0"/>
<path d="M47.8627 14.6974C48.0412 15.1862 48.6745 17.9955 45.5549 19.1643C44.8367 15.6835 47.3825 14.791 47.8627 14.6974Z" fill="#F7F3F0"/>
<path d="M44.1353 15.1947C43.7358 15.4965 41.3473 16.8055 39.5792 13.7879C42.5543 12.2366 43.9398 14.7102 44.1353 15.1947Z" fill="#F7F3F0"/>
<path d="M45.7886 10.0691C46.0691 10.5026 47.2804 13.0824 44.4839 14.9864C43.0473 11.7733 45.3381 10.2773 45.7886 10.0691Z" fill="#F7F3F0"/>
<path d="M42.1505 11.4546C41.8233 11.8456 39.7662 13.6944 37.4202 11.1826C40 8.95129 41.8615 11.0296 42.1505 11.4546Z" fill="#F7F3F0"/>
<path d="M42.6988 6.06125C43.0601 6.41401 44.7729 8.63681 42.4481 11.1656C40.3825 8.3818 42.3078 6.37151 42.6988 6.06125Z" fill="#F7F3F0"/>
<path d="M39.3286 8.20329C39.0906 8.6623 37.4628 10.9616 34.662 9.07456C36.7148 6.28224 38.9588 7.85903 39.3286 8.20329Z" fill="#F7F3F0"/>
<path d="M38.7548 2.81415C39.1798 3.0734 41.3091 4.82444 39.5623 7.85476C36.974 5.63621 38.4361 3.21366 38.7548 2.81415Z" fill="#F7F3F0"/>
<path d="M35.7755 5.57671C35.6395 6.08247 34.5345 8.71753 31.4106 7.56575C32.8259 4.34418 35.342 5.33445 35.7755 5.57671Z" fill="#F7F3F0"/>
<path d="M34.0881 0.463867C34.5556 0.612621 36.9994 1.80265 35.9284 5.17722C32.9448 3.64719 33.8586 0.931378 34.0881 0.463867Z" fill="#F7F3F0"/>
<path d="M28.8223 2.60592C29.2345 2.32116 31.6656 1.11413 33.3231 4.1997C30.2971 5.62773 28.9965 3.09893 28.8223 2.60592Z" fill="#F7F3F0"/>
</g>
<defs>
<clipPath id="clip0_4_441">
<rect width="48.2641" height="45.0723" fill="white" transform="translate(0.503906 0.463867)"/>
</clipPath>
</defs>
</svg>
