<svg width="95" height="89" viewBox="0 0 95 89" fill="none" xmlns="http://www.w3.org/2000/svg">
<g clip-path="url(#clip0_4_305)">
<path d="M38.7519 82.5232C39.0669 81.5533 40.0783 76.0236 33.902 74.0339C32.7662 80.8817 37.8068 82.3906 38.7519 82.5232Z" fill="#F7F3F0"/>
<path d="M30.7019 88.5752C31.5973 88.9151 36.729 90.0095 38.5695 83.344C32.2273 82.1253 30.8263 87.5555 30.7019 88.5752Z" fill="#F7F3F0"/>
<path d="M31.2905 80.7408C31.7962 79.8786 33.9683 74.7385 28.3806 71.2732C25.8189 77.6568 30.4035 80.376 31.2905 80.7408Z" fill="#F7F3F0"/>
<path d="M22.1711 84.6456C22.9753 85.201 27.7256 87.5306 30.9423 81.5035C25.023 78.7428 22.511 83.6839 22.1711 84.6456Z" fill="#F7F3F0"/>
<path d="M24.4012 76.9189C25.081 76.1977 28.2563 71.7208 23.5307 66.987C19.7089 72.5913 23.6136 76.3469 24.4012 76.9189Z" fill="#F7F3F0"/>
<path d="M14.7097 78.5107C15.3729 79.2402 19.5264 82.6725 23.9038 77.5656C18.714 73.4452 15.232 77.6568 14.7097 78.5107Z" fill="#F7F3F0"/>
<path d="M18.3492 71.2898C19.1534 70.7509 23.1742 67.1446 19.543 61.3993C14.6683 65.9507 17.6943 70.5436 18.3492 71.2898Z" fill="#F7F3F0"/>
<path d="M8.56653 70.5187C9.06395 71.3892 12.405 75.7251 17.7274 71.8038C13.5159 66.5394 9.25463 69.8058 8.56653 70.5187Z" fill="#F7F3F0"/>
<path d="M13.3833 64.0854C14.287 63.7538 18.9462 61.2169 16.6 54.7338C10.9045 57.9837 12.8942 63.1983 13.3833 64.0854Z" fill="#F7F3F0"/>
<path d="M4.00684 60.9599C4.31358 61.9299 6.66805 66.9705 12.6703 64.4419C9.66089 58.2904 4.82759 60.4459 4.00684 60.9599Z" fill="#F7F3F0"/>
<path d="M9.70231 55.4965C10.6474 55.3971 15.7294 54.0872 14.8341 47.1979C8.59969 48.9471 9.42873 54.51 9.70231 55.4965Z" fill="#F7F3F0"/>
<path d="M1.25446 50.1244C1.34565 51.1441 2.55605 56.6323 8.93965 55.6624C7.32303 48.9305 2.1664 49.8259 1.25446 50.1244Z" fill="#F7F3F0"/>
<path d="M7.57997 45.9875C8.52508 46.1367 13.748 46.145 14.3698 39.2225C7.92817 39.3386 7.52194 44.9595 7.57997 45.9875Z" fill="#F7F3F0"/>
<path d="M0.533143 38.6256C0.400497 39.6453 0.383916 45.2828 6.80068 45.9543C6.69291 38.9987 1.48654 38.5593 0.533143 38.6256Z" fill="#F7F3F0"/>
<path d="M7.52197 37.639C8.40905 38.0204 13.4828 39.3551 15.5885 32.7809C9.29612 31.2637 7.68778 36.6276 7.52197 37.639Z" fill="#F7F3F0"/>
<path d="M2.26587 28.702C1.91768 29.6554 0.682406 35.1353 6.76756 37.4152C8.16863 30.6254 3.20269 28.8844 2.26587 28.702Z" fill="#F7F3F0"/>
<path d="M9.53656 29.672C10.3159 30.2606 14.9751 32.814 18.4156 26.9278C12.6123 23.9018 9.90963 28.7269 9.53656 29.672Z" fill="#F7F3F0"/>
<path d="M6.31155 19.6737C5.76439 20.5194 3.40162 25.5516 8.85671 29.2657C11.6589 22.9982 7.19034 20.08 6.31155 19.6737Z" fill="#F7F3F0"/>
<path d="M13.4081 22.3764C14.0465 23.1391 18.0591 26.7455 22.6354 21.8458C17.6114 17.4934 13.9719 21.5474 13.4081 22.3764Z" fill="#F7F3F0"/>
<path d="M12.3387 11.8559C11.634 12.544 8.28466 16.8799 12.8278 21.8127C16.8569 16.3825 13.1014 12.4611 12.3387 11.8559Z" fill="#F7F3F0"/>
<path d="M18.913 16.0343C19.3772 16.9296 22.5524 21.4147 28.0158 17.7338C24.0116 12.287 19.6342 15.3627 18.913 16.0343Z" fill="#F7F3F0"/>
<path d="M20.0321 5.52203C19.2031 6.02775 15.0496 9.44339 18.457 15.3544C23.5058 11.0269 20.6539 6.30133 20.0321 5.52203Z" fill="#F7F3F0"/>
<path d="M25.8438 10.9108C26.109 11.8973 28.2563 17.0374 34.358 14.7907C31.5973 8.50657 26.6894 10.4382 25.8438 10.9108Z" fill="#F7F3F0"/>
<path d="M29.135 0.937439C28.2231 1.2276 23.4561 3.54891 25.5453 10.1315C31.3652 7.14695 29.5827 1.84938 29.135 0.937439Z" fill="#F7F3F0"/>
<path d="M39.4069 5.1158C38.6027 4.56034 33.8606 2.20587 30.6273 8.2247C36.5301 11.0103 39.0669 6.07749 39.4069 5.1158Z" fill="#F7F3F0"/>
<path d="M56.3939 82.5232C56.0788 81.5533 55.0674 76.0236 61.2355 74.0339C62.3713 80.8817 57.3307 82.3906 56.3939 82.5232Z" fill="#F7F3F0"/>
<path d="M64.4438 88.5752C63.5485 88.9151 58.4167 90.0095 56.5762 83.344C62.9184 82.1253 64.3195 87.5555 64.4438 88.5752Z" fill="#F7F3F0"/>
<path d="M63.8552 80.7408C63.3412 79.8786 61.1774 74.7385 66.7651 71.2732C69.3269 77.6568 64.7423 80.376 63.8552 80.7408Z" fill="#F7F3F0"/>
<path d="M72.9747 84.6456C72.1705 85.201 67.4201 87.5306 64.2034 81.5035C70.1228 78.7428 72.6348 83.6839 72.9747 84.6456Z" fill="#F7F3F0"/>
<path d="M70.7445 76.9189C70.0647 76.1977 66.8895 71.7208 71.615 66.987C75.4369 72.5913 71.5321 76.3469 70.7445 76.9189Z" fill="#F7F3F0"/>
<path d="M80.436 78.5107C79.7645 79.2402 75.6193 82.6725 71.2336 77.5656C76.4234 73.4452 79.9054 77.6568 80.436 78.5107Z" fill="#F7F3F0"/>
<path d="M76.7965 71.2898C75.9841 70.7509 71.9715 67.1446 75.6027 61.3993C80.4775 65.9507 77.4515 70.5436 76.7965 71.2898Z" fill="#F7F3F0"/>
<path d="M86.5792 70.5187C86.0818 71.3892 82.7408 75.7251 77.4183 71.8038C81.6299 66.5394 85.8911 69.8058 86.5792 70.5187Z" fill="#F7F3F0"/>
<path d="M81.7625 64.0854C80.8588 63.7538 76.1996 61.2169 78.5375 54.7338C84.233 57.9837 82.2433 63.1983 81.7625 64.0854Z" fill="#F7F3F0"/>
<path d="M91.1389 60.9599C90.8322 61.9299 88.4777 66.9705 82.4755 64.4419C85.4849 58.2904 90.3182 60.4459 91.1389 60.9599Z" fill="#F7F3F0"/>
<path d="M85.4434 55.4965C84.4983 55.3971 79.4163 54.0872 80.3117 47.1979C86.5543 48.9471 85.7253 54.51 85.4434 55.4965Z" fill="#F7F3F0"/>
<path d="M93.8913 50.1244C93.8001 51.1441 92.5897 56.6323 86.2061 55.6624C87.8227 48.9305 92.9794 49.8259 93.8913 50.1244Z" fill="#F7F3F0"/>
<path d="M87.5658 45.9875C86.6207 46.1367 81.3977 46.145 80.7759 39.2225C87.2176 39.3386 87.6238 44.9595 87.5658 45.9875Z" fill="#F7F3F0"/>
<path d="M94.6126 38.6256C94.7452 39.6453 94.7618 45.2828 88.345 45.9543C88.4528 38.9987 93.6592 38.5593 94.6126 38.6256Z" fill="#F7F3F0"/>
<path d="M87.6238 37.639C86.7367 38.0204 81.663 39.3551 79.5573 32.7809C85.8497 31.2637 87.458 36.6276 87.6238 37.639Z" fill="#F7F3F0"/>
<path d="M92.8799 28.702C93.2281 29.6554 94.4634 35.1353 88.3782 37.4152C86.9772 30.6254 91.9431 28.8844 92.8799 28.702Z" fill="#F7F3F0"/>
<path d="M85.6092 29.672C84.8299 30.2606 80.1707 32.814 76.7219 26.9278C82.5252 23.9018 85.2279 28.7269 85.6092 29.672Z" fill="#F7F3F0"/>
<path d="M88.8342 19.6737C89.3813 20.5194 91.7441 25.5516 86.289 29.2657C83.4869 22.9982 87.9554 20.08 88.8342 19.6737Z" fill="#F7F3F0"/>
<path d="M81.7376 22.3764C81.0992 23.1391 77.0867 26.7455 72.5104 21.8458C77.5426 17.4934 81.1738 21.5474 81.7376 22.3764Z" fill="#F7F3F0"/>
<path d="M82.807 11.8559C83.5117 12.544 86.8528 16.8799 82.3179 21.8127C78.2888 16.3825 82.0443 12.4611 82.807 11.8559Z" fill="#F7F3F0"/>
<path d="M76.2328 16.0343C75.7685 16.9296 72.5933 21.4147 67.1299 17.7338C71.1342 12.287 75.5115 15.3627 76.2328 16.0343Z" fill="#F7F3F0"/>
<path d="M75.1136 5.52203C75.9426 6.02775 80.0961 9.44339 76.6888 15.3544C71.6399 11.0269 74.4918 6.30133 75.1136 5.52203Z" fill="#F7F3F0"/>
<path d="M69.302 10.9108C69.0367 11.8973 66.8812 17.0374 60.7878 14.7907C63.5485 8.50657 68.4564 10.4382 69.302 10.9108Z" fill="#F7F3F0"/>
<path d="M66.0107 0.937439C66.9227 1.2276 71.6896 3.54891 69.6005 10.1315C63.7806 7.14695 65.563 1.84938 66.0107 0.937439Z" fill="#F7F3F0"/>
<path d="M55.7389 5.1158C56.5431 4.56034 61.2852 2.20587 64.5184 8.2247C58.6157 11.0103 56.0788 6.07749 55.7389 5.1158Z" fill="#F7F3F0"/>
</g>
<defs>
<clipPath id="clip0_4_305">
<rect width="94.1458" height="87.9197" fill="white" transform="translate(0.5 0.937439)"/>
</clipPath>
</defs>
</svg>
