<svg width="158" height="28" viewBox="0 0 158 28" fill="none" xmlns="http://www.w3.org/2000/svg">
<g clip-path="url(#clip0_4_495)">
<path d="M76.8997 21.721C72.7719 21.721 70.1123 18.6785 70.1123 13.9703C70.1123 9.26204 72.839 6.24504 76.8997 6.24504C80.9604 6.24504 83.6871 9.34703 83.6871 13.9703C83.6871 18.5935 81.0191 21.721 76.8997 21.721ZM76.8997 0.5C69.3488 0.5 63.8618 6.17705 63.8618 13.9958C63.8618 21.8144 69.223 27.4915 76.8997 27.4915C84.5765 27.4915 89.9376 21.8144 89.9376 13.9958C89.9376 6.17705 84.459 0.5 76.8997 0.5Z" fill="#F7F2F0"/>
<path d="M132.751 12.432L128.33 9.70397C128.33 9.70397 128.33 9.70397 128.321 9.70397C127.138 8.99858 126.794 8.53116 126.794 7.64731C126.794 6.54249 127.709 6.15156 128.556 6.15156C129.546 6.15156 130.788 6.44051 131.551 8.65864C131.585 8.75212 131.635 8.93059 131.669 9.09207C131.711 9.26204 131.895 9.36402 132.063 9.30453L136.904 7.57082C137.047 7.51983 137.139 7.35836 137.097 7.20538C136.073 2.82011 133.154 0.5 128.682 0.5C123.472 0.5 120.737 4.22238 120.737 7.90227C120.737 12.262 123.48 13.8938 125.485 15.0921L129.487 17.4887C130.863 18.3215 131.048 19.1459 131.048 19.8428C131.048 21.0241 130.201 21.755 128.841 21.755C126.543 21.755 125.662 19.4518 125.502 18.0921C125.485 17.9646 125.469 17.7096 125.452 17.4887C125.435 17.2847 125.234 17.1572 125.049 17.2252L120.066 19.0609C119.931 19.1119 119.847 19.2479 119.864 19.3839C120.401 24.4575 123.74 27.5 128.716 27.5C133.691 27.5 137.265 24.3725 137.265 19.7153C137.265 16.6813 135.788 14.3017 132.751 12.432Z" fill="#F7F2F0"/>
<path d="M22.1051 23.9561L27.5669 13.9447C27.718 13.6643 28.1375 13.7748 28.1375 14.0892V26.6671C28.1375 26.8371 28.2717 26.9731 28.4395 26.9731H33.7922C33.96 26.9731 34.0943 26.8371 34.0943 26.6671V1.32435C34.0943 1.15438 33.96 1.0184 33.7922 1.0184H27.6341C27.5166 1.0184 27.4159 1.08639 27.3656 1.18837L21.4843 13.2224L15.603 1.18837C15.5526 1.08639 15.4436 1.0184 15.3345 1.0184H9.1763C9.00851 1.0184 8.87427 1.15438 8.87427 1.32435V26.6671C8.87427 26.8371 9.00851 26.9731 9.1763 26.9731H14.5291C14.6968 26.9731 14.8311 26.8371 14.8311 26.6671V14.0892C14.8311 13.7748 15.2506 13.6643 15.4016 13.9447L20.8634 23.9561C20.9138 24.0581 21.0144 24.1176 21.1319 24.1176H21.845C21.9541 24.1176 22.0548 24.0581 22.1135 23.9561" fill="#F7F2F0"/>
<path d="M50.0351 23.9561L55.4969 13.9447C55.6479 13.6643 56.0674 13.7748 56.0674 14.0892V26.6671C56.0674 26.8371 56.2016 26.9731 56.3694 26.9731H61.7222C61.89 26.9731 62.0242 26.8371 62.0242 26.6671V1.32435C62.0242 1.15438 61.89 1.0184 61.7222 1.0184H55.564C55.4465 1.0184 55.3459 1.08639 55.2955 1.18837L49.4142 13.2224L43.5329 1.18837C43.4826 1.08639 43.3735 1.0184 43.2644 1.0184H37.1062C36.9384 1.0184 36.8042 1.15438 36.8042 1.32435V26.6671C36.8042 26.8371 36.9384 26.9731 37.1062 26.9731H42.459C42.6268 26.9731 42.761 26.8371 42.761 26.6671V14.0892C42.761 13.7748 43.1805 13.6643 43.3315 13.9447L48.7934 23.9561C48.8437 24.0581 48.9444 24.1176 49.0618 24.1176H49.775C49.884 24.1176 49.9847 24.0581 50.0434 23.9561" fill="#F7F2F0"/>
<path d="M152.501 12.432L148.079 9.70397C148.079 9.70397 148.079 9.70397 148.071 9.70397C146.888 8.99858 146.544 8.53116 146.544 7.64731C146.544 6.54249 147.458 6.15156 148.306 6.15156C149.296 6.15156 150.538 6.44051 151.301 8.65864C151.335 8.75212 151.385 8.93059 151.419 9.09207C151.46 9.26204 151.645 9.36402 151.813 9.30453L156.654 7.57082C156.796 7.51983 156.889 7.35836 156.847 7.20538C155.823 2.82011 152.895 0.5 148.432 0.5C143.213 0.5 140.486 4.22238 140.486 7.90227C140.486 12.262 143.23 13.8938 145.235 15.0921L149.237 17.4887C150.613 18.3215 150.798 19.1459 150.798 19.8428C150.798 21.0241 149.95 21.755 148.591 21.755C146.292 21.755 145.411 19.4518 145.252 18.0921C145.235 17.9646 145.218 17.7096 145.202 17.4887C145.185 17.2847 144.983 17.1572 144.799 17.2252L139.815 19.0609C139.681 19.1119 139.597 19.2479 139.614 19.3839C140.151 24.4575 143.49 27.5 148.465 27.5C153.44 27.5 157.015 24.3725 157.015 19.7153C157.015 16.6813 155.538 14.3017 152.501 12.432Z" fill="#F7F2F0"/>
<path d="M117.129 1.0184H111.583C111.415 1.0184 111.281 1.15438 111.281 1.32435V6.02407C111.281 6.15155 111.357 6.27053 111.483 6.31302L113.328 6.67846C111.65 8.11472 111.34 9.81444 111.281 10.5708V26.6671C111.281 26.8371 111.415 26.9731 111.583 26.9731H117.129C117.297 26.9731 117.431 26.8371 117.431 26.6671V1.32435C117.431 1.15438 117.297 1.0184 117.129 1.0184Z" fill="#F7F2F0"/>
<path d="M108.303 1.0184H90.7178C90.55 1.0184 90.4158 1.15438 90.4158 1.32435V6.35551C90.4158 6.52548 90.55 6.66146 90.7178 6.66146H98.4785C96.8005 8.09772 96.49 9.81444 96.4313 10.5708V26.4632L96.381 26.6671C96.381 26.8371 96.5152 26.9731 96.683 26.9731H102.279C102.447 26.9731 102.581 26.8371 102.581 26.6671V6.96741C102.581 6.79744 102.715 6.66146 102.883 6.66146H108.303C108.471 6.66146 108.605 6.52548 108.605 6.35551V1.32435C108.605 1.15438 108.471 1.0184 108.303 1.0184Z" fill="#F7F2F0"/>
<path d="M5.8624 1.0014H0.316684C0.148887 1.0014 0.0146484 1.13738 0.0146484 1.30735V6.00707C0.0146484 6.13455 0.0901574 6.25353 0.207616 6.29602L2.05339 6.66146C0.375414 8.09772 0.0733777 9.80594 0.0146484 10.5538V11.0977V26.6586C0.0146484 26.8286 0.148887 26.9646 0.316684 26.9646H5.8624C6.0302 26.9646 6.16444 26.8286 6.16444 26.6586V1.30735C6.16444 1.13738 6.0302 1.0014 5.8624 1.0014Z" fill="#F7F2F0"/>
</g>
<defs>
<clipPath id="clip0_4_495">
<rect width="157" height="27" fill="white" transform="translate(0.0146484 0.5)"/>
</clipPath>
</defs>
</svg>
