<?xml version="1.0" encoding="utf-8"?>
<!-- Generator: $$$/GeneralStr/196=Adobe Illustrator 27.6.0, SVG Export Plug-In . SVG Version: 6.00 Build 0)  -->
<svg version="1.1" id="Ebene_1" xmlns="http://www.w3.org/2000/svg" xmlns:xlink="http://www.w3.org/1999/xlink" x="0px" y="0px"
	 viewBox="0 0 44 43" style="enable-background:new 0 0 44 43;" xml:space="preserve">
<style type="text/css">
	.st0{clip-path:url(#SVGID_00000026855360180507612360000014707140024156420243_);}
	.st1{fill:#FFFFFF;filter:url(#Adobe_OpacityMaskFilter);}
	.st2{mask:url(#mask0_10_729_00000047772368166290797790000016010517872674682294_);}
	.st3{fill:#266687;}
</style>
<g>
	<defs>
		<rect id="SVGID_1_" x="0.9" width="42.3" height="42.3"/>
	</defs>
	<clipPath id="SVGID_00000132770540625069384620000008070395473693302973_">
		<use xlink:href="#SVGID_1_"  style="overflow:visible;"/>
	</clipPath>
	<g style="clip-path:url(#SVGID_00000132770540625069384620000008070395473693302973_);">
		<defs>
			<filter id="Adobe_OpacityMaskFilter" filterUnits="userSpaceOnUse" x="0.9" y="0" width="42.3" height="42.3">
				<feColorMatrix  type="matrix" values="1 0 0 0 0  0 1 0 0 0  0 0 1 0 0  0 0 0 1 0"/>
			</filter>
		</defs>
		
			<mask maskUnits="userSpaceOnUse" x="0.9" y="0" width="42.3" height="42.3" id="mask0_10_729_00000047772368166290797790000016010517872674682294_">
			<path class="st1" d="M43.2,0H0.9v42.3h42.3V0z"/>
		</mask>
		<g class="st2">
			<path class="st3" d="M13.7,9.3c0-2-1.5-3.8-3.7-3.7c-2.2,0-3.6,1.8-3.6,3.7s1.5,3.7,3.7,3.7C12.4,12.9,13.8,11.1,13.7,9.3
				 M6.9,26v9.6c0,0.1,0,0.2,0,0.4c0,0.2,0.1,0.3,0.3,0.3c0.1,0,0.2,0,0.3,0c1.7,0,3.4,0,5.1,0c0.7,0,0.6,0,0.6-0.6
				c0-6.4,0-12.8,0-19.2c0-0.1,0-0.2,0-0.3c0-0.3,0-0.3-0.3-0.3c-1.9,0-3.8,0-5.7,0c-0.3,0-0.3,0-0.3,0.3c0,0.1,0,0.2,0,0.3V26
				L6.9,26z M22.6,18.6v-0.9c0-0.5,0-1.1,0-1.6c0-0.2-0.1-0.3-0.3-0.3c-0.1,0-0.2,0-0.3,0c-1.6,0-3.2,0-4.8,0
				c-0.6,0-0.6-0.1-0.6,0.6c0,6.4,0,12.9,0,19.3c0,0.1,0,0.2,0,0.3c0,0.2,0.1,0.3,0.3,0.3c0.1,0,0.2,0,0.3,0c1.7,0,3.4,0,5.1,0
				c0.4,0,0.6-0.2,0.6-0.6c0-3.3,0-6.6,0-9.9c0-0.4,0-0.9,0.1-1.3c0.1-0.9,0.5-1.7,1.2-2.4c0.7-0.7,1.5-1,2.4-1.2
				c1.6-0.3,2.9,0.4,3.6,1.8c0.4,0.8,0.6,1.7,0.6,2.6c0,3.5,0,6.9,0,10.4c0,0.5,0,0.5,0.6,0.5c1.7,0,3.5,0,5.2,0
				c0.4,0,0.6-0.2,0.6-0.6c0-3.8,0-7.5,0-11.3c0-0.9-0.1-1.9-0.2-2.8c-0.3-1.5-0.9-2.9-2-4c-1.9-1.9-4.2-2.5-6.8-2.1
				c-0.9,0.1-1.7,0.4-2.5,0.7c-0.9,0.4-1.8,1-2.5,1.7C23,18.1,22.8,18.3,22.6,18.6 M0.9,2.6c0.2-1,0.7-1.8,1.6-2.2
				C3,0.1,3.6,0,4.1,0C16,0,27.8,0,39.6,0c0.3,0,0.7,0,1,0.1c1,0.1,1.7,0.7,2.2,1.5c0.3,0.6,0.4,1.2,0.4,1.8c0,11.8,0,23.6,0,35.5
				c0,0.3,0,0.6-0.1,0.9c-0.1,1.3-1.3,2.4-2.5,2.6H3.4c-1.3-0.2-2.4-1.3-2.5-2.5V2.6z"/>
		</g>
	</g>
</g>
</svg>
