<?xml version="1.0" encoding="utf-8"?>
<!-- Generator: $$$/GeneralStr/196=Adobe Illustrator 27.6.0, SVG Export Plug-In . SVG Version: 6.00 Build 0)  -->
<svg version="1.1" id="Ebene_1" xmlns="http://www.w3.org/2000/svg" xmlns:xlink="http://www.w3.org/1999/xlink" x="0px" y="0px"
	 viewBox="0 0 46 46" style="enable-background:new 0 0 46 46;" xml:space="preserve">
<style type="text/css">
	.st0{fill:#FFFFFF;}
</style>
<g>
	<g>
		<path class="st0" d="M16.3,35.5C16.3,35.5,16.3,35.5,16.3,35.5c0.1,0,0.1-0.1,0.1-0.1c0.8-2.7,1.6-5.3,2.4-8
			c0.1-0.2,0-0.3-0.2-0.4c-0.7-0.4-1.5-0.7-2.2-1.1c-0.3-0.1-0.5-0.3-0.9-0.4C15.8,28.9,16,32.2,16.3,35.5 M25.1,31.5
			c-1.7-1.2-3.3-2.3-4.9-3.5c-1,3.2-1.9,6.3-2.8,9.4c0,0,0.1,0,0.1,0C19.9,35.4,22.5,33.5,25.1,31.5 M35.4,14.8
			C35.4,14.8,35.4,14.8,35.4,14.8c-6.4,3.1-12.8,6.3-19.2,9.5c1.1,0.5,2.1,1,3.1,1.5c0.3,0.1,0.5,0.1,0.7-0.1
			c5-3.6,10.1-7.1,15.1-10.7C35.2,15,35.3,14.9,35.4,14.8z M3.5,18.2c0.1,0.1,0.2,0.1,0.2,0.1c3.5,1.7,7.1,3.4,10.6,5.1
			c0.1,0.1,0.4,0,0.6,0c8.5-4.3,17.1-8.5,25.6-12.8c0.1-0.1,0.2-0.1,0.4-0.2c0,0,0-0.1,0-0.1C28.5,12.9,16.1,15.5,3.5,18.2
			 M43.1,11.2C35.7,16.4,28.3,21.6,21,26.8c4.5,3.2,9,6.4,13.5,9.6C37.4,28,40.2,19.6,43.1,11.2 M45.3,9.1c-0.2,0.4-0.4,0.9-0.5,1.3
			c-3.1,9-6.1,18.1-9.2,27.1c-0.3,0.9-0.7,1-1.4,0.4c-2.5-1.8-5-3.6-7.5-5.4c-0.1-0.1-0.3-0.2-0.4-0.3c-1.1,0.9-2.2,1.7-3.3,2.6
			c-2.1,1.6-4.3,3.3-6.4,5c-0.3,0.2-0.6,0.4-0.9,0.2c-0.3-0.1-0.4-0.5-0.4-0.8c-0.3-3.8-0.6-7.6-0.9-11.4c-0.1-0.9-0.1-1.7-0.2-2.6
			c0-0.3-0.1-0.4-0.4-0.6c-4.1-2-8.3-4-12.4-6c-0.1,0-0.1-0.1-0.2-0.1c-0.3-0.1-0.5-0.4-0.4-0.7c0-0.4,0.3-0.6,0.6-0.6
			c1.4-0.3,2.7-0.6,4.1-0.9c6.9-1.4,13.7-2.9,20.6-4.3c6.1-1.3,12.2-2.6,18.3-3.9c0.4-0.1,0.8,0,1,0.4L45.3,9.1L45.3,9.1z"/>
	</g>
</g>
</svg>
