<?xml version="1.0" encoding="UTF-8"?>
<svg id="Ebene_1" data-name="Ebene 1" xmlns="http://www.w3.org/2000/svg" xmlns:xlink="http://www.w3.org/1999/xlink" viewBox="0 0 100 100">
  <defs>
    <style>
      .cls-1, .cls-2 {
        fill: none;
      }

      .cls-3 {
        clip-path: url(#clippath);
      }

      .cls-4 {
        fill: #1b1b1d;
      }

      .cls-5 {
        clip-path: url(#clippath-1);
      }

      .cls-2 {
        stroke: #1b1b1d;
        stroke-miterlimit: 8;
        stroke-width: 1.38px;
      }
    </style>
    <clipPath id="clippath">
      <rect class="cls-1" x="16.86" y="16.87" width="66.06" height="66.06"/>
    </clipPath>
    <clipPath id="clippath-1">
      <rect class="cls-1" x="1.27" y="1.27" width="97.47" height="97.46"/>
    </clipPath>
  </defs>
  <path class="cls-4" d="m60.22,33.89l5.76,5.76,5.76-5.76-5.76-5.76-5.76,5.76Zm-1.93,0l7.69-7.69,7.69,7.69-7.69,7.69-7.69-7.69Z"/>
  <g class="cls-3">
    <path class="cls-4" d="m33.89,39.34c-3.01,0-5.45-2.44-5.45-5.45s2.44-5.45,5.45-5.45,5.45,2.44,5.45,5.45c0,3.01-2.44,5.44-5.45,5.45m0-12.26c-3.76,0-6.81,3.05-6.81,6.81s3.05,6.81,6.81,6.81,6.81-3.05,6.81-6.81c0-3.76-3.05-6.81-6.81-6.81"/>
    <path class="cls-4" d="m65.89,61.82c3.01,0,5.45,2.44,5.45,5.45s-2.44,5.45-5.45,5.45-5.45-2.44-5.45-5.45c0-3.01,2.44-5.44,5.45-5.45m-6.81,5.45c0,3.76,3.05,6.81,6.81,6.81s6.81-3.05,6.81-6.81-3.05-6.81-6.81-6.81c-3.76,0-6.81,3.05-6.81,6.81"/>
    <path class="cls-4" d="m28.44,61.82h10.9v10.9h-10.9v-10.9Zm-1.36,12.26h13.62v-13.62h-13.62v13.62Z"/>
    <path class="cls-4" d="m65.89,43.43c-.38,0-.68.31-.68.68v12.66l-2.24-2.24c-.27-.26-.7-.25-.96.02-.25.26-.25.68,0,.95l3.41,3.41c.27.27.7.27.96,0l3.41-3.41c.26-.27.25-.7-.02-.96-.26-.25-.68-.25-.95,0l-2.24,2.24v-12.66c0-.38-.31-.68-.68-.68"/>
    <path class="cls-4" d="m56.84,33.41l-3.41-3.4c-.27-.26-.7-.25-.96.02-.25.26-.25.68,0,.95l2.24,2.24h-11.3c-.38,0-.68.31-.68.68s.31.68.68.68h11.3l-2.24,2.24c-.27.26-.28.69-.02.96.26.27.69.28.96.02,0,0,.01-.01.02-.02l3.41-3.41c.27-.27.27-.7,0-.96"/>
    <path class="cls-4" d="m57.04,67.26c0-.38-.31-.68-.68-.68h-11.98l2.24-2.24c.27-.26.28-.69.02-.96-.26-.27-.69-.28-.96-.02,0,0-.01.01-.02.02l-3.41,3.41c-.27.27-.27.7,0,.96l3.41,3.41c.26.27.69.28.96.02.27-.26.28-.69.02-.96,0,0-.01-.01-.02-.02l-2.24-2.24h11.98c.38,0,.68-.31.68-.68"/>
  </g>
  <g class="cls-5">
    <path class="cls-2" d="m1.95,50.13C1.95,23.53,23.52,1.96,50.12,1.96s48.17,21.57,48.17,48.17-21.57,48.17-48.17,48.17S1.95,76.73,1.95,50.13Z"/>
  </g>
</svg>