<svg width="85" height="85" viewBox="0 0 85 85" fill="none" xmlns="http://www.w3.org/2000/svg">
<circle cx="42.498" cy="42.2263" r="41.8372" fill="#F7F2F0"/>
<path d="M60.5331 61.4522C60.3184 61.2896 60.0814 61.1502 59.8928 60.9616C56.2342 57.3127 52.5812 53.6582 48.9283 50.0027C48.8242 49.8987 48.7415 49.7742 48.6355 49.6441C44.7121 52.9668 40.285 54.2352 35.3023 53.1676C31.4253 52.3369 28.3448 50.2053 26.1164 46.9346C21.8677 40.6979 22.797 32.1977 28.8438 27.0481C34.4724 22.2554 42.5869 22.2628 48.2146 27.0184C51.4317 29.7372 53.2457 33.2439 53.5347 37.455C53.8218 41.6484 52.4995 45.3354 49.7154 48.5328C49.8241 48.648 49.9207 48.7548 50.0229 48.8561C53.6852 52.519 57.3494 56.18 61.0079 59.8475C61.1966 60.0361 61.336 60.273 61.4986 60.4877V60.8584C61.3006 61.0563 61.1027 61.2543 60.9048 61.4522H60.534H60.5331ZM38.5557 51.955C45.9592 51.9392 52.032 45.8762 51.9949 38.492C51.9568 31.0195 45.9824 25.0494 38.5352 25.0615C31.009 25.0736 25.0932 31.1077 25.1025 38.5124C25.1127 46.0342 31.1568 51.9132 38.5547 51.955H38.5557Z" fill="#266687"/>
</svg>
