<svg width="85" height="85" viewBox="0 0 85 85" fill="none" xmlns="http://www.w3.org/2000/svg">
<circle cx="42.484" cy="42.2263" r="41.8372" fill="#F7F2F0"/>
<path d="M64.9528 53.3448C64.5436 53.8489 64.3291 53.8958 63.7077 53.6004C53.7506 48.8522 43.7935 44.1041 33.8376 39.3547C29.433 37.2538 25.0271 35.1564 20.6295 33.0414C20.3903 32.9265 20.1418 32.6944 20.0503 32.4576C19.9835 32.2852 20.1043 31.9101 20.2578 31.8151C20.4677 31.685 20.8335 31.6287 21.0527 31.7248C22.204 32.2266 23.3307 32.7847 24.4644 33.3251C37.7053 39.6384 50.9463 45.9517 64.1825 52.2733C64.4627 52.4069 64.6972 52.6332 64.954 52.8161V53.3436L64.9528 53.3448Z" fill="#266687"/>
<path d="M64.9528 39.8871C64.8379 40.3666 64.7464 40.8543 64.6034 41.3256C63.5717 44.7267 60.2503 47.0035 56.7343 46.7315C53.1691 46.456 50.2346 43.7618 49.6953 40.2681C49.0447 36.0487 51.9322 32.079 56.1071 31.4541C60.3676 30.8175 64.2834 33.7461 64.8754 38.0089C64.8895 38.1086 64.927 38.2047 64.954 38.302V39.8847L64.9528 39.8871ZM57.269 45.341C60.7334 45.3469 63.5459 42.5296 63.5483 39.0512C63.5506 35.5715 60.6982 32.7742 57.1482 32.7766C53.8303 32.7777 51.0119 35.6489 51.0049 39.0336C50.9979 42.5109 53.8034 45.3363 57.269 45.3422V45.341Z" fill="#266687"/>
<path d="M42.4699 64.1635C39.0032 64.1635 35.5364 64.1635 32.0697 64.1635C31.1071 64.1635 30.834 63.684 31.317 62.8446C34.7873 56.8209 38.2575 50.7971 41.729 44.7746C42.2003 43.9574 42.7595 43.9504 43.2261 44.7582C46.7046 50.7936 50.1831 56.8291 53.6604 62.8657C54.127 63.6758 53.8456 64.1623 52.9147 64.1623C49.4339 64.1623 45.9519 64.1623 42.4711 64.1623L42.4699 64.1635ZM42.4828 46.2799C39.3056 51.8019 36.1742 57.2453 33.0146 62.7355H51.951C48.7926 57.2464 45.66 51.8019 42.4828 46.2799Z" fill="#266687"/>
<path d="M20.014 27.2136C20.0176 24.8875 21.9063 23 24.2335 23C26.5489 23 28.4482 24.9075 28.4388 27.2276C28.4294 29.5572 26.5454 31.44 24.2194 31.4424C21.9063 31.4459 20.0105 29.5396 20.014 27.2136ZM24.2299 24.4069C22.6789 24.4033 21.415 25.6695 21.4174 27.2265C21.4197 28.7623 22.666 30.0226 24.1983 30.0355C25.7505 30.0484 27.0296 28.7869 27.0331 27.237C27.0378 25.6777 25.7822 24.4104 24.2299 24.4069Z" fill="#266687"/>
</svg>
