<svg width="85" height="85" viewBox="0 0 85 85" fill="none" xmlns="http://www.w3.org/2000/svg">
<circle cx="42.5125" cy="42.2263" r="41.8372" fill="#F7F2F0"/>
<path d="M67.385 39.0917C67.2112 40.0101 67.0854 40.9401 66.8532 41.8442C66.1515 44.5733 64.639 46.8433 62.8361 48.9667C58.6347 53.9165 53.8756 58.2657 48.7546 62.231C47.4497 63.2414 46.1305 64.235 44.7984 65.2078C43.3534 66.2624 41.732 66.2637 40.2922 65.2143C35.2879 61.5694 30.4704 57.6988 26.1484 53.2445C23.9952 51.0252 21.8083 48.811 20.1558 46.1805C17.5213 41.9908 16.8364 37.5053 18.6706 32.8124C20.7018 27.6135 25.9902 24.2423 31.5535 24.4628C35.1893 24.6068 38.3024 25.9325 40.9096 28.4722C41.9382 29.4749 43.1329 29.471 44.1732 28.4644C47.1539 25.5797 50.7275 24.2851 54.851 24.5121C61.3366 24.8701 66.6457 29.986 67.2981 36.4806C67.3111 36.6064 67.3552 36.7297 67.3837 36.8542V39.0917H67.385ZM30.7091 25.9779C26.1381 26.2191 22.3349 28.4437 20.2479 33.0874C18.3515 37.3069 18.9494 41.4758 21.4412 45.2595C22.811 47.3414 24.527 49.217 26.225 51.0576C30.7247 55.9335 35.8716 60.0726 41.2209 63.9678C42.0822 64.5943 43.0045 64.5852 43.88 63.9522C44.8373 63.2596 45.7816 62.5501 46.7233 61.8353C52.4656 57.4706 57.8071 52.6816 62.3782 47.069C65.0697 43.7652 66.3344 40.0542 65.6378 35.7724C64.774 30.4633 60.0317 26.2788 54.6577 26.0531C51.0077 25.9 47.8699 27.0545 45.2186 29.5929C44.7569 30.0353 44.1472 30.414 43.5389 30.5956C42.0615 31.0366 40.8007 30.5606 39.7007 29.4814C37.3361 27.1621 34.4591 26.0479 30.7117 25.9766L30.7091 25.9779Z" fill="#266687"/>
</svg>
